<?xml version="1.0" standalone="no"?>
<!DOCTYPE svg PUBLIC "-//W3C//DTD SVG 20010904//EN" "http://www.w3.org/TR/2001/REC-SVG-20010904/DTD/svg10.dtd">
<svg xmlns="http://www.w3.org/2000/svg" version="1.0" width="225.000000pt" height="225.000000pt" viewBox="0 0 225.000000 225.000000" preserveAspectRatio="xMidYMid meet">
<metadata>
Created by potrace 1.16, written by Peter Selinger 2001-2019
</metadata>
<g transform="translate(0.000000,225.000000) scale(0.100000,-0.100000)" fill="#000000" stroke="none">
<path d="M1040 2239 c-111 -22 -226 -116 -278 -226 l-27 -58 -3 -454 -3 -454 -43 -51 c-110 -129 -151 -238 -151 -401 0 -81 5 -125 19 -165 56 -167 160 -291 300 -360 133 -66 256 -83 389 -55 182 38 335 157 413 319 107 222 75 461 -85 654 l-50 60 -3 449 c-3 442 -3 449 -26 505 -27 67 -103 155 -166 192 -84 49 -185 65 -286 45z m188 -909 l2 -455 46 -24 c164 -87 195 -329 60 -464 -57 -57 -110 -80 -199 -85 -71 -4 -82 -2 -142 27 -107 53 -164 146 -165 266 0 112 54 208 144 256 l46 24 0 451 c0 248 3 454 7 458 4 4 50 5 103 4 l95 -3 3 -455z"/>
<path d="M1056 664 c-58 -59 -14 -164 69 -164 83 0 127 105 69 164 -21 20 -37 26 -69 26 -32 0 -48 -6 -69 -26z"/>
<path d="M508 2065 c-90 -59 -218 -182 -290 -279 -273 -366 -287 -886 -36 -1273 46 -69 138 -177 187 -219 l27 -22 -23 67 c-83 248 -39 524 116 731 l41 54 0 401 c0 414 6 479 45 555 9 17 12 30 8 30 -5 -1 -38 -21 -75 -45z"/>
<path d="M1675 2080 c39 -76 45 -141 45 -555 l0 -401 41 -54 c156 -208 200 -488 114 -734 l-24 -70 61 60 c276 269 392 661 308 1044 -48 220 -152 403 -322 566 -71 68 -212 174 -232 174 -4 0 0 -13 9 -30z"/>
</g>
</svg>
